<svg width="353" height="353" viewBox="0 0 353 353" fill="none" xmlns="http://www.w3.org/2000/svg">
<rect width="353" height="353" fill="#0F172A"/>
<path d="M51 206.862V143.532H75.077C80.5108 143.532 85.3511 144.101 89.5982 145.239C93.9077 146.377 97.2804 148.431 99.7162 151.401C102.214 154.372 103.464 158.638 103.464 164.2C103.464 169.699 102.214 173.965 99.7162 176.999C97.2804 179.969 93.9077 182.023 89.5982 183.161C85.3511 184.299 80.5108 184.868 75.077 184.868H65.8022V206.862H51ZM65.8022 172.448H75.5455C77.8563 172.448 79.9174 172.227 81.7287 171.784C83.6024 171.342 85.0701 170.52 86.1318 169.319C87.2561 168.119 87.8182 166.412 87.8182 164.2C87.8182 161.988 87.2561 160.313 86.1318 159.175C85.0701 157.974 83.6024 157.184 81.7287 156.805C79.9174 156.363 77.8563 156.142 75.5455 156.142H65.8022V172.448Z" fill="white"/>
<path d="M110.207 206.862V159.839H121.449L123.978 168.466C125.415 164.674 127.382 162.019 129.881 160.503C132.379 158.986 135.408 158.322 138.968 158.512V172.922C138.218 172.796 137.563 172.732 137.001 172.732C136.438 172.669 135.814 172.638 135.127 172.638C131.692 172.638 129.037 173.459 127.164 175.103C125.352 176.746 124.447 179.432 124.447 183.161V206.862H110.207Z" fill="white"/>
<path d="M160.021 152.065C157.71 152.065 155.711 151.243 154.025 149.6C152.401 147.894 151.589 145.871 151.589 143.532C151.589 141.131 152.401 139.108 154.025 137.465C155.711 135.822 157.71 135 160.021 135C162.394 135 164.393 135.822 166.017 137.465C167.64 139.108 168.452 141.131 168.452 143.532C168.452 145.871 167.64 147.894 166.017 149.6C164.393 151.243 162.394 152.065 160.021 152.065ZM152.807 206.862V170.836H144.001V159.839H167.141V206.862H152.807Z" fill="white"/>
<path d="M175.987 206.862V159.839H188.447L190.228 166.096C191.289 164.326 193.038 162.62 195.474 160.977C197.91 159.333 200.845 158.512 204.28 158.512C207.965 158.512 210.901 159.175 213.087 160.503C215.335 161.83 216.99 163.789 218.052 166.381C219.863 163.789 222.143 161.83 224.891 160.503C227.701 159.175 230.731 158.512 233.978 158.512C239.912 158.512 244.003 160.218 246.251 163.631C248.5 166.981 249.624 171.848 249.624 178.231V206.862H235.384V181.834C235.384 179.622 235.259 177.599 235.009 175.766C234.759 173.933 234.135 172.48 233.135 171.405C232.136 170.268 230.481 169.699 228.17 169.699C225.297 169.699 223.205 170.742 221.893 172.827C220.581 174.85 219.926 177.915 219.926 182.023V206.862H205.592V181.834C205.592 179.622 205.467 177.599 205.217 175.766C205.03 173.933 204.436 172.48 203.437 171.405C202.5 170.268 200.908 169.699 198.659 169.699C195.724 169.699 193.569 170.773 192.195 172.922C190.883 175.071 190.228 178.2 190.228 182.308V206.862H175.987Z" fill="white"/>
<path d="M272.552 208C269.617 208 266.931 207.431 264.495 206.294C262.06 205.156 260.124 203.576 258.687 201.553C257.251 199.468 256.532 197.003 256.532 194.158C256.532 190.303 257.844 187.238 260.467 184.962C263.153 182.687 266.806 180.981 271.428 179.843C276.05 178.705 281.359 177.915 287.355 177.473C287.355 174.123 286.824 171.753 285.762 170.362C284.7 168.972 282.639 168.277 279.579 168.277C277.643 168.277 275.925 168.751 274.426 169.699C272.99 170.584 272.022 171.974 271.522 173.87L259.53 169.509C261.092 166.349 263.684 163.726 267.306 161.64C270.991 159.555 275.488 158.512 280.797 158.512C287.417 158.512 292.507 159.997 296.067 162.968C299.627 165.938 301.407 170.994 301.407 178.136V188.47C301.407 190.493 301.47 192.673 301.595 195.012C301.72 197.35 301.907 199.562 302.157 201.648C302.407 203.734 302.688 205.472 303 206.862H289.79L288.104 201.174C286.355 203.639 284.138 205.409 281.452 206.483C278.829 207.494 275.863 208 272.552 208ZM277.799 198.14C280.609 198.14 282.951 197.382 284.825 195.865C286.699 194.348 287.636 191.441 287.636 187.143V186.005C282.702 186.448 278.736 187.143 275.738 188.091C272.74 188.976 271.241 190.651 271.241 193.116C271.241 194.632 271.865 195.865 273.115 196.813C274.364 197.698 275.925 198.14 277.799 198.14Z" fill="white"/>
</svg>
